<svg width="822" height="291" viewBox="0 0 822 291" fill="none" xmlns="http://www.w3.org/2000/svg">
<mask id="mask0_2010_10" style="mask-type:alpha" maskUnits="userSpaceOnUse" x="0" y="0" width="822" height="291">
<path d="M120.157 114.75L56 290H0.5L88.5 0H808.5L822 243.5L763 289.5L584 290.5L583.5 248H689.586L690.32 163.215H580V126H688.5L693.5 42.5H571.5L583.5 290.5L528 290L464.5 115.5L420 116L356 290.5H228L172.5 138L120.157 114.75Z" fill="white"/>
</mask>
<g mask="url(#mask0_2010_10)">
<path d="M188 180.8L152.8 84.6C151.067 80.3333 149.267 75.2667 147.4 69.4C145.533 63.5333 143.667 57.2 141.8 50.4C140.067 57.2 138.267 63.6 136.4 69.6C134.533 75.4667 132.733 80.6 131 85L96 180.8H188ZM283 290H241.4C236.733 290 232.933 288.867 230 286.6C227.067 284.2 224.867 281.267 223.4 277.8L201.8 218.8H82L60.4 277.8C59.3333 280.867 57.2667 283.667 54.2 286.2C51.1333 288.733 47.3333 290 42.8 290H0.8L114.6 0.79998H169.4L283 290Z" fill="black"/>
<path d="M488.157 180.8L452.957 84.6C451.223 80.3333 449.423 75.2667 447.557 69.4C445.69 63.5333 443.823 57.2 441.957 50.4C440.223 57.2 438.423 63.6 436.557 69.6C434.69 75.4667 432.89 80.6 431.157 85L396.157 180.8H488.157ZM583.157 290H541.557C536.89 290 533.09 288.867 530.157 286.6C527.223 284.2 525.023 281.267 523.557 277.8L501.957 218.8H382.157L360.557 277.8C359.49 280.867 357.423 283.667 354.357 286.2C351.29 288.733 347.49 290 342.957 290H300.957L414.757 0.79998H469.557L583.157 290Z" fill="black"/>
<path d="M713.174 248C723.174 248 731.574 246.8 738.374 244.4C745.174 242 750.574 238.8 754.574 234.8C758.708 230.8 761.641 226.133 763.374 220.8C765.241 215.467 766.174 209.8 766.174 203.8C766.174 197.533 765.174 191.933 763.174 187C761.174 181.933 758.041 177.667 753.774 174.2C749.508 170.6 743.974 167.867 737.174 166C730.508 164.133 722.441 163.2 712.974 163.2H658.774V248H713.174ZM658.774 42.4V126H701.574C719.974 126 733.841 122.667 743.174 116C752.641 109.333 757.374 98.7333 757.374 84.2C757.374 69.1333 753.108 58.4 744.574 52C736.041 45.6 722.708 42.4 704.574 42.4H658.774ZM704.574 0.79998C723.508 0.79998 739.708 2.59998 753.174 6.19999C766.641 9.79999 777.641 14.9333 786.174 21.6C794.841 28.2667 801.174 36.3333 805.174 45.8C809.174 55.2666 811.174 65.9333 811.174 77.8C811.174 84.6 810.174 91.1333 808.174 97.4C806.174 103.533 803.041 109.333 798.774 114.8C794.641 120.133 789.308 125 782.774 129.4C776.374 133.8 768.708 137.533 759.774 140.6C799.508 149.533 819.374 171 819.374 205C819.374 217.267 817.041 228.6 812.374 239C807.708 249.4 800.908 258.4 791.974 266C783.041 273.467 772.041 279.333 758.974 283.6C745.908 287.867 730.974 290 714.174 290H604.974V0.79998H704.574Z" fill="black"/>
</g>
</svg>
